# WaveFront *.obj file (generated by Cinema 4D)

mtllib ./cucube.mtl

v -293.445605 -100.000000 100.000000
v -293.445605 1.887064 100.000000
v 100.000000 -100.000000 100.000000
v 100.000000 100.000000 100.000000
v 100.000000 -100.000000 -100.000000
v 100.000000 100.000000 -100.000000
v -293.445605 -100.000000 -100.000000
v -293.445605 1.887064 -100.000000
v -129.386290 -100.000000 -100.000000
v -129.386290 1.887064 -100.000000
v -129.386290 1.887064 100.000000
v -129.386290 -100.000000 100.000000
v -293.445605 -100.000000 165.993359
v -293.445605 1.887064 165.993359
v -129.386290 1.887064 165.993359
v -129.386290 -100.000000 165.993359
v -293.445605 42.039115 100.000000
v -129.386290 42.039115 100.000000
v -293.445605 42.039115 165.993359
v -129.386290 42.039115 165.993359
# 20 vertices

vn 0.000000 0.000000 1.000000
vn 1.000000 0.000000 0.000000
vn -0.000000 0.000000 -1.000000
vn -0.000000 0.000000 -1.000000
vn -1.000000 0.000000 0.000000
vn 0.000000 1.000000 0.000000
vn -0.200713 0.979650 -0.000000
vn 0.000000 -1.000000 0.000000
vn 0.000000 -1.000000 -0.000000
vn 0.000000 -1.000000 -0.000000
vn 0.000000 0.000000 -1.000000
vn -0.393257 0.919428 -0.000000
vn 0.000000 -0.000000 1.000000
vn 0.000000 1.000000 0.000000
vn 0.000000 -1.000000 -0.000000
vn 0.000000 0.000000 -1.000000
# 16 normals

vt 0.000000 0.000000 0.000000
vt 0.000000 1.000000 0.000000
vt 0.416981 1.000000 0.000000
vt 0.416981 0.000000 0.000000
vt 1.000000 1.000000 0.000000
vt 1.000000 0.000000 0.000000
vt 0.583019 1.000000 0.000000
vt 0.583019 0.000000 0.000000
# 8 texture coordinates

o Cube
usemtl Mat.3
f 16/4/1 15/3/1 14/2/1 13/1/1
f 5/6/2 6/5/2 4/2/2 3/1/2
f 9/8/4 10/7/4 6/2/3 5/1/3
f 1/6/5 2/5/5 8/2/5 7/1/5
f 9/4/8 12/3/10 1/2/9 7/1/8
f 9/8/4 7/6/11 8/5/11 10/7/4
f 12/4/13 3/6/13 4/5/13 11/3/13
f 9/4/8 5/6/8 3/5/8 12/3/10
f 14/2/5 2/2/5 1/1/5 13/1/5
f 16/4/2 12/4/2 11/3/2 15/3/2
f 13/1/15 1/1/9 12/4/10 16/4/15
f 17/2/5 2/2/5 14/2/5 19/2/5
f 18/3/16 11/3/16 2/2/16 17/2/16
f 20/3/2 15/3/2 11/3/2 18/3/2
f 19/2/1 14/2/1 15/3/1 20/3/1

usemtl Mat
f 11/4/7 10/3/7 8/2/6 2/1/6
f 11/4/7 4/6/12 6/5/12 10/3/7
f 20/3/14 18/3/14 17/2/14 19/2/14

